<svg width="52" height="52" viewBox="0 0 52 52" fill="none" xmlns="http://www.w3.org/2000/svg">
<g clip-path="url(#clip0_2012_1918)">
<path d="M52 26C52 11.6406 40.3594 0 26 0C11.6406 0 0 11.6406 0 26C0 40.3594 11.6406 52 26 52C40.3594 52 52 40.3594 52 26Z" fill="#08101C"/>
<path d="M22 15C22 13.8954 21.1046 13 20 13H15C13.8954 13 13 13.8954 13 15V28C13 35.1797 18.8203 41 26 41C33.1797 41 39 35.1797 39 28V15C39 13.8954 38.1046 13 37 13H36C34.8954 13 34 13.8954 34 15V26.9798C34 27.8075 33.0518 28.2769 32.3936 27.7749L29.2128 25.3492C28.4965 24.8029 27.5035 24.8029 26.7872 25.3492L23.6064 27.7749C22.9482 28.2769 22 27.8075 22 26.9798V15Z" fill="white"/>
</g>
<defs>
<clipPath id="clip0_2012_1918">
<rect width="52" height="52" fill="white"/>
</clipPath>
</defs>
</svg>
