<svg width="362" height="178" viewBox="0 0 362 178" fill="none" xmlns="http://www.w3.org/2000/svg">
<rect x="28.4157" y="28.4152" width="330.064" height="145.228" rx="24.6448" fill="white"/>
<rect x="28.4157" y="28.4152" width="330.064" height="145.228" rx="24.6448" stroke="white" stroke-width="7.04136"/>
<rect x="28.4157" y="28.4152" width="330.064" height="145.228" rx="24.6448" fill="white"/>
<rect x="28.4157" y="28.4152" width="330.064" height="145.228" rx="24.6448" stroke="white" stroke-width="7.04136"/>
<rect x="28.4157" y="28.4152" width="330.064" height="145.228" rx="24.6448" fill="white"/>
<rect x="28.4157" y="28.4152" width="330.064" height="145.228" rx="24.6448" stroke="white" stroke-width="7.04136"/>
<rect x="28.4157" y="28.4152" width="330.064" height="145.228" rx="24.6448" fill="white"/>
<rect x="28.4157" y="28.4152" width="330.064" height="145.228" rx="24.6448" stroke="white" stroke-width="7.04136"/>
<path d="M28.1654 0.440085H308.94C316.594 0.440085 323.523 3.54117 328.54 8.55653C333.561 13.5746 336.665 20.5071 336.665 28.1654V124.104C336.665 139.416 324.252 151.829 308.94 151.829H28.1654C20.5113 151.829 13.5822 148.728 8.56477 143.713C3.54457 138.695 0.440085 131.762 0.440085 124.104V28.1654C0.440085 12.8531 12.8531 0.440085 28.1654 0.440085Z" fill="white" stroke="white" stroke-width="0.88017"/>
<path d="M337.526 125.147L361.559 149.18C361.462 164.348 349.184 176.626 334.016 176.723L309.983 152.69C324.952 152.153 336.989 140.116 337.526 125.147Z" fill="white" stroke="white" stroke-width="0.88017" stroke-linejoin="round"/>
<path d="M337.545 29.2275L361.56 53.2423V147.936L337.545 123.921V29.2275Z" fill="white" stroke="white" stroke-width="0.88017" stroke-linejoin="round"/>
<path d="M353.435 33.4513L353.435 33.4513C358.217 38.2318 361.261 44.7494 361.539 51.977L337.544 27.9824C337.511 22.7123 336.053 17.78 333.536 13.5519L353.435 33.4513Z" fill="white" stroke="white" stroke-width="0.88017" stroke-linejoin="round"/>
<path d="M328.54 8.55653L348.448 28.4642C344.22 25.9468 339.287 24.4884 334.017 24.4555L310.023 0.460854C317.246 0.738317 323.76 3.77883 328.54 8.55647C328.54 8.55649 328.54 8.55651 328.54 8.55653Z" fill="white" stroke="white" stroke-width="0.88017" stroke-linejoin="round"/>
<path d="M53.2428 176.724L29.228 152.71H308.757L332.772 176.724H53.2428Z" fill="white" stroke="white" stroke-width="0.88017" stroke-linejoin="round"/>
<path d="M53.2428 24.4549L29.228 0.440085H308.757L332.772 24.4549H53.2428Z" fill="white" stroke="white" stroke-width="0.88017" stroke-linejoin="round"/>
<path d="M33.4595 168.607L13.5519 148.7C17.7799 151.217 22.7122 152.675 27.9823 152.708L51.9769 176.703C44.7536 176.425 38.2392 173.385 33.4596 168.607C33.4595 168.607 33.4595 168.607 33.4595 168.607Z" fill="white" stroke="white" stroke-width="0.88017" stroke-linejoin="round"/>
<mask id="path-13-inside-1" fill="white">
<path d="M24.895 148.998C24.895 156.774 28.0458 163.814 33.1402 168.91L8.25365 144.024C3.15425 138.926 0 131.883 0 124.104L24.895 148.998Z"/>
</mask>
<path d="M24.895 148.998C24.895 156.774 28.0458 163.814 33.1402 168.91L8.25365 144.024C3.15425 138.926 0 131.883 0 124.104L24.895 148.998Z" fill="white"/>
<path d="M33.4598 168.607C33.4598 168.607 33.4598 168.607 33.4598 168.607C33.4598 168.607 33.4598 168.607 33.4598 168.607C33.4598 168.607 33.4598 168.607 33.4598 168.607C33.4597 168.607 33.4597 168.607 33.4597 168.607C33.4597 168.607 33.4597 168.607 33.4597 168.607C33.4597 168.607 33.4597 168.607 33.4597 168.607C33.4597 168.607 33.4597 168.607 33.4597 168.607C33.4597 168.607 33.4597 168.607 33.4597 168.607C33.4597 168.607 33.4597 168.607 33.4597 168.607C33.4596 168.607 33.4596 168.607 33.4596 168.607C33.4596 168.607 33.4596 168.607 33.4596 168.607C33.4596 168.607 33.4596 168.607 33.4596 168.607C33.4596 168.607 33.4596 168.607 33.4596 168.607C33.4596 168.607 33.4596 168.607 33.4596 168.607C33.4596 168.607 33.4596 168.607 33.4596 168.607C33.4595 168.607 33.4595 168.607 33.4595 168.607C33.4595 168.607 33.4595 168.607 33.4595 168.607C33.4595 168.607 33.4595 168.607 33.4595 168.607C33.4595 168.607 33.4595 168.607 33.4595 168.607C33.4595 168.607 33.4595 168.607 33.4595 168.607C33.4595 168.607 33.4595 168.607 33.4595 168.607C33.4595 168.607 33.4594 168.607 33.4594 168.607C33.4594 168.607 33.4594 168.607 33.4594 168.607C33.4594 168.607 33.4594 168.607 33.4594 168.607C33.4594 168.607 33.4594 168.607 33.4594 168.607C33.4594 168.607 33.4594 168.607 33.4594 168.607C33.4594 168.607 33.4594 168.607 33.4594 168.607C33.4594 168.607 33.4593 168.607 33.4593 168.607C33.4593 168.607 33.4593 168.607 33.4593 168.607C33.4593 168.607 33.4593 168.607 33.4593 168.607C33.4593 168.607 33.4593 168.607 33.4593 168.607C33.4593 168.607 33.4593 168.607 33.4593 168.607C33.4593 168.607 33.4593 168.607 33.4593 168.607C33.4593 168.607 33.4592 168.607 33.4592 168.607C33.4592 168.607 33.4592 168.607 33.4592 168.607C33.4592 168.607 33.4592 168.607 33.4592 168.607C33.4592 168.607 33.4592 168.607 33.4592 168.607C33.4592 168.607 33.4592 168.607 33.4592 168.607C33.4592 168.607 33.4592 168.607 33.4592 168.607C33.4592 168.607 33.4592 168.607 33.4591 168.607C33.4591 168.607 33.4591 168.607 33.4591 168.607C33.4591 168.607 33.4591 168.607 33.4591 168.607C33.4591 168.607 33.4591 168.607 33.4591 168.607C33.4591 168.607 33.4591 168.607 33.4591 168.607C33.4591 168.607 33.4591 168.607 33.4591 168.607C33.4591 168.607 33.4591 168.607 33.459 168.607C33.459 168.607 33.459 168.607 33.459 168.607C33.459 168.607 33.459 168.607 33.459 168.607C33.459 168.607 33.459 168.607 33.459 168.607C33.459 168.607 33.459 168.607 33.459 168.607C33.459 168.607 33.459 168.607 33.459 168.607C33.459 168.607 33.459 168.607 33.459 168.607C33.4589 168.607 33.4589 168.607 33.4589 168.607C33.4589 168.607 33.4589 168.607 33.4589 168.607C33.4589 168.607 33.4589 168.607 33.4589 168.607C33.4589 168.607 33.4589 168.607 33.4589 168.607C33.4589 168.607 33.4589 168.607 33.4589 168.607C33.4589 168.607 33.4589 168.607 33.4589 168.607C33.4588 168.606 33.4588 168.606 33.4588 168.606C33.4588 168.606 33.4588 168.606 33.4588 168.606C33.4588 168.606 33.4588 168.606 33.4588 168.606C33.4588 168.606 33.4588 168.606 33.4588 168.606C33.4588 168.606 33.4588 168.606 33.4588 168.606C33.4588 168.606 33.4588 168.606 33.4588 168.606C33.4587 168.606 33.4587 168.606 33.4587 168.606C33.4587 168.606 33.4587 168.606 33.4587 168.606C33.4587 168.606 33.4587 168.606 33.4587 168.606C33.4587 168.606 33.4587 168.606 33.4587 168.606C33.4587 168.606 33.4587 168.606 33.4587 168.606C33.4587 168.606 33.4587 168.606 33.4587 168.606C33.4587 168.606 33.4586 168.606 33.4586 168.606C33.4586 168.606 33.4586 168.606 33.4586 168.606C33.4586 168.606 33.4586 168.606 33.4586 168.606C33.4586 168.606 33.4586 168.606 33.4586 168.606C33.4586 168.606 33.4586 168.606 33.4586 168.606C33.4586 168.606 33.4586 168.606 33.4586 168.606C33.4586 168.606 33.4585 168.606 33.4585 168.606C33.4585 168.606 33.4585 168.606 33.4585 168.606C33.4585 168.606 33.4585 168.606 33.4585 168.606C33.4585 168.606 33.4585 168.606 33.4585 168.606C33.4585 168.606 33.4585 168.606 33.4585 168.606C33.4585 168.606 33.4585 168.606 33.4585 168.606C33.4585 168.606 33.4584 168.606 33.4584 168.606C33.4584 168.606 33.4584 168.606 33.4584 168.606C33.4584 168.606 33.4584 168.606 33.4584 168.606C33.4584 168.606 33.4584 168.606 33.4584 168.606C33.4584 168.606 33.4584 168.606 33.4584 168.606C33.4584 168.606 33.4584 168.606 33.4584 168.606C33.4584 168.606 33.4584 168.606 33.4583 168.606C33.4583 168.606 33.4583 168.606 33.4583 168.606C33.4583 168.606 33.4583 168.606 33.4583 168.606C33.4583 168.606 33.4583 168.606 33.4583 168.606C33.4583 168.606 33.4583 168.606 33.4583 168.606C33.4583 168.606 33.4583 168.606 33.4583 168.606C33.4583 168.606 33.4583 168.606 33.4582 168.606C33.4582 168.606 33.4582 168.606 33.4582 168.606C33.4582 168.606 33.4582 168.606 33.4582 168.606C33.4582 168.606 33.4582 168.606 33.4582 168.606C33.4582 168.606 33.4582 168.606 33.4582 168.606C33.4582 168.606 33.4582 168.606 33.4582 168.606C33.4582 168.606 33.4582 168.606 33.4581 168.606C33.4581 168.606 33.4581 168.606 33.4581 168.606C33.4581 168.606 33.4581 168.606 33.4581 168.606C33.4581 168.606 33.4581 168.606 33.4581 168.606C33.4581 168.606 33.4581 168.606 33.4581 168.606C33.4581 168.606 33.4581 168.606 33.4581 168.606C33.4581 168.606 33.4581 168.606 33.4581 168.606C33.458 168.606 33.458 168.606 33.458 168.606C33.458 168.606 33.458 168.606 33.458 168.606C33.458 168.606 33.458 168.606 33.458 168.606C33.458 168.606 33.458 168.606 33.458 168.606C33.458 168.606 33.458 168.606 33.458 168.606C33.458 168.606 33.458 168.606 33.458 168.606C33.4579 168.606 33.4579 168.606 33.4579 168.606C33.4579 168.606 33.4579 168.606 33.4579 168.606C33.4579 168.606 33.4579 168.606 33.4579 168.606C33.4579 168.606 33.4579 168.606 33.4579 168.606C33.4579 168.606 33.4579 168.606 33.4579 168.606C33.4579 168.606 33.4579 168.606 33.4579 168.606C33.4578 168.605 33.4578 168.605 33.4578 168.605C33.4578 168.605 33.4578 168.605 33.4578 168.605C33.4578 168.605 33.4578 168.605 33.4578 168.605C33.4578 168.605 33.4578 168.605 33.4578 168.605C33.4578 168.605 33.4578 168.605 33.4578 168.605C33.4578 168.605 33.4578 168.605 33.4578 168.605C33.4578 168.605 33.4577 168.605 33.4577 168.605C33.4577 168.605 33.4577 168.605 33.4577 168.605C33.4577 168.605 33.4577 168.605 33.4577 168.605C33.4577 168.605 33.4577 168.605 33.4577 168.605C33.4577 168.605 33.4577 168.605 33.4577 168.605C33.4577 168.605 33.4577 168.605 33.4577 168.605C33.4577 168.605 33.4576 168.605 33.4576 168.605C33.4576 168.605 33.4576 168.605 33.4576 168.605C33.4576 168.605 33.4576 168.605 33.4576 168.605C33.4576 168.605 33.4576 168.605 33.4576 168.605C33.4576 168.605 33.4576 168.605 33.4576 168.605C33.4576 168.605 33.4576 168.605 33.4576 168.605C33.4576 168.605 33.4575 168.605 33.4575 168.605C33.4575 168.605 33.4575 168.605 33.4575 168.605C33.4575 168.605 33.4575 168.605 33.4575 168.605C33.4575 168.605 33.4575 168.605 33.4575 168.605C33.4575 168.605 33.4575 168.605 33.4575 168.605C33.4575 168.605 33.4575 168.605 33.4575 168.605C33.4575 168.605 33.4575 168.605 33.4574 168.605C33.4574 168.605 33.4574 168.605 33.4574 168.605C33.4574 168.605 33.4574 168.605 33.4574 168.605C33.4574 168.605 33.4574 168.605 33.4574 168.605C33.4574 168.605 33.4574 168.605 33.4574 168.605C33.4574 168.605 33.4574 168.605 33.4574 168.605C33.4574 168.605 33.4574 168.605 33.4573 168.605C33.4573 168.605 33.4573 168.605 33.4573 168.605C33.4573 168.605 33.4573 168.605 33.4573 168.605C33.4573 168.605 33.4573 168.605 33.4573 168.605C33.4573 168.605 33.4573 168.605 33.4573 168.605C33.4573 168.605 33.4573 168.605 33.4573 168.605C33.4573 168.605 33.4573 168.605 33.4573 168.605C33.4572 168.605 33.4572 168.605 33.4572 168.605C33.4572 168.605 33.4572 168.605 33.4572 168.605C33.4572 168.605 33.4572 168.605 33.4572 168.605C33.4572 168.605 33.4572 168.605 33.4572 168.605C33.4572 168.605 33.4572 168.605 33.4572 168.605C33.4572 168.605 33.4572 168.605 33.4572 168.605C33.4571 168.605 33.4571 168.605 33.4571 168.605C33.4571 168.605 33.4571 168.605 33.4571 168.605C33.4571 168.605 33.4571 168.605 33.4571 168.605C33.4571 168.605 33.4571 168.605 33.4571 168.605C33.4571 168.605 33.4571 168.605 33.4571 168.605C33.4571 168.605 33.4571 168.605 33.4571 168.605C33.457 168.605 33.457 168.605 33.457 168.605C33.457 168.605 33.457 168.605 33.457 168.605C33.457 168.605 33.457 168.605 33.457 168.605C33.457 168.605 33.457 168.605 33.457 168.605C33.457 168.605 33.457 168.605 33.457 168.605C33.457 168.605 33.457 168.605 33.457 168.605C33.457 168.605 33.4569 168.605 33.4569 168.605C33.4569 168.605 33.4569 168.605 33.4569 168.605C33.4569 168.605 33.4569 168.605 33.4569 168.605C33.4569 168.605 33.4569 168.605 33.4569 168.605C33.4569 168.605 33.4569 168.605 33.4569 168.605C33.4569 168.605 33.4569 168.605 33.4569 168.605C33.4569 168.605 33.4568 168.604 33.4568 168.604C33.4568 168.604 33.4568 168.604 33.4568 168.604C33.4568 168.604 33.4568 168.604 33.4568 168.604C33.4568 168.604 33.4568 168.604 33.4568 168.604C33.4568 168.604 33.4568 168.604 33.4568 168.604C33.4568 168.604 33.4568 168.604 33.4568 168.604C33.4568 168.604 33.4567 168.604 33.4567 168.604C33.4567 168.604 33.4567 168.604 33.4567 168.604C33.4567 168.604 33.4567 168.604 33.4567 168.604C33.4567 168.604 33.4567 168.604 33.4567 168.604C33.4567 168.604 33.4567 168.604 33.4567 168.604C33.4567 168.604 33.4567 168.604 33.4567 168.604C33.4567 168.604 33.4567 168.604 33.4566 168.604C33.4566 168.604 33.4566 168.604 33.4566 168.604C33.4566 168.604 33.4566 168.604 33.4566 168.604C33.4566 168.604 33.4566 168.604 33.4566 168.604C33.4566 168.604 33.4566 168.604 33.4566 168.604C33.4566 168.604 33.4566 168.604 33.4566 168.604C33.4566 168.604 33.4566 168.604 33.4565 168.604C33.4565 168.604 33.4565 168.604 33.4565 168.604C33.4565 168.604 33.4565 168.604 33.4565 168.604C33.4565 168.604 33.4565 168.604 33.4565 168.604C33.4565 168.604 33.4565 168.604 33.4565 168.604C33.4565 168.604 33.4565 168.604 33.4565 168.604C33.4565 168.604 33.4565 168.604 33.4564 168.604C33.4564 168.604 33.4564 168.604 33.4564 168.604C33.4564 168.604 33.4564 168.604 33.4564 168.604C33.4564 168.604 33.4564 168.604 33.4564 168.604C33.4564 168.604 33.4564 168.604 33.4564 168.604C33.4564 168.604 33.4564 168.604 33.4564 168.604C33.4564 168.604 33.4564 168.604 33.4564 168.604C33.4563 168.604 33.4563 168.604 33.4563 168.604C33.4563 168.604 33.4563 168.604 33.4563 168.604C33.4563 168.604 33.4563 168.604 33.4563 168.604C33.4563 168.604 33.4563 168.604 33.4563 168.604C33.4563 168.604 33.4563 168.604 33.4563 168.604C33.4563 168.604 33.4563 168.604 33.4563 168.604C33.4562 168.604 33.4562 168.604 33.4562 168.604C33.4562 168.604 33.4562 168.604 33.4562 168.604C33.4562 168.604 33.4562 168.604 33.4562 168.604C33.4562 168.604 33.4562 168.604 33.4562 168.604C33.4562 168.604 33.4562 168.604 33.4562 168.604C33.4562 168.604 33.4562 168.604 33.4562 168.604C33.4561 168.604 33.4561 168.604 33.4561 168.604C33.4561 168.604 33.4561 168.604 33.4561 168.604C33.4561 168.604 33.4561 168.604 33.4561 168.604C33.4561 168.604 33.4561 168.604 33.4561 168.604C33.4561 168.604 33.4561 168.604 33.4561 168.604C33.4561 168.604 33.4561 168.604 33.4561 168.604C33.4561 168.604 33.456 168.604 33.456 168.604C33.456 168.604 33.456 168.604 33.456 168.604C33.456 168.604 33.456 168.604 33.456 168.604C33.456 168.604 33.456 168.604 33.456 168.604C33.456 168.604 33.456 168.604 33.456 168.604C33.456 168.604 33.456 168.604 33.456 168.604C33.456 168.604 33.4559 168.604 33.4559 168.604C33.4559 168.604 33.4559 168.604 33.4559 168.604C33.4559 168.604 33.4559 168.604 33.4559 168.604C33.4559 168.604 33.4559 168.604 33.4559 168.604C33.4559 168.604 33.4559 168.604 33.4559 168.604C33.4559 168.604 33.4559 168.604 33.4559 168.604C33.4559 168.604 33.4558 168.603 33.4558 168.603C33.4558 168.603 33.4558 168.603 33.4558 168.603C33.4558 168.603 33.4558 168.603 33.4558 168.603C33.4558 168.603 33.4558 168.603 33.4558 168.603C33.4558 168.603 33.4558 168.603 33.4558 168.603C33.4558 168.603 33.4558 168.603 33.4558 168.603C33.4558 168.603 33.4558 168.603 33.4557 168.603C33.4557 168.603 33.4557 168.603 33.4557 168.603C33.4557 168.603 33.4557 168.603 33.4557 168.603C33.4557 168.603 33.4557 168.603 33.4557 168.603C33.4557 168.603 33.4557 168.603 33.4557 168.603C33.4557 168.603 33.4557 168.603 33.4557 168.603C33.4557 168.603 33.4557 168.603 33.4556 168.603C33.4556 168.603 33.4556 168.603 33.4556 168.603C33.4556 168.603 33.4556 168.603 33.4556 168.603C33.4556 168.603 33.4556 168.603 33.4556 168.603C33.4556 168.603 33.4556 168.603 33.4556 168.603C33.4556 168.603 33.4556 168.603 33.4556 168.603C33.4556 168.603 33.4556 168.603 33.4555 168.603C33.4555 168.603 33.4555 168.603 33.4555 168.603C33.4555 168.603 33.4555 168.603 33.4555 168.603C33.4555 168.603 33.4555 168.603 33.4555 168.603C33.4555 168.603 33.4555 168.603 33.4555 168.603C33.4555 168.603 33.4555 168.603 33.4555 168.603C33.4555 168.603 33.4555 168.603 33.4555 168.603C33.4554 168.603 33.4554 168.603 33.4554 168.603C33.4554 168.603 33.4554 168.603 33.4554 168.603C33.4554 168.603 33.4554 168.603 33.4554 168.603C33.4554 168.603 33.4554 168.603 33.4554 168.603C33.4554 168.603 33.4554 168.603 33.4554 168.603C33.4554 168.603 33.4554 168.603 33.4554 168.603C33.4553 168.603 33.4553 168.603 33.4553 168.603C33.4553 168.603 33.4553 168.603 33.4553 168.603C33.4553 168.603 33.4553 168.603 33.4553 168.603C33.4553 168.603 33.4553 168.603 33.4553 168.603C33.4553 168.603 33.4553 168.603 33.4553 168.603C33.4553 168.603 33.4553 168.603 33.4553 168.603C33.4553 168.603 33.4552 168.603 33.4552 168.603C33.4552 168.603 33.4552 168.603 33.4552 168.603C33.4552 168.603 33.4552 168.603 33.4552 168.603C33.4552 168.603 33.4552 168.603 33.4552 168.603C33.4552 168.603 33.4552 168.603 33.4552 168.603C33.4552 168.603 33.4552 168.603 33.4552 168.603C33.4552 168.603 33.4551 168.603 33.4551 168.603C33.4551 168.603 33.4551 168.603 33.4551 168.603C33.4551 168.603 33.4551 168.603 33.4551 168.603C33.4551 168.603 33.4551 168.603 33.4551 168.603C33.4551 168.603 33.4551 168.603 33.4551 168.603C33.4551 168.603 33.4551 168.603 33.4551 168.603C33.4551 168.603 33.455 168.603 33.455 168.603C33.455 168.603 33.455 168.603 33.455 168.603C33.455 168.603 33.455 168.603 33.455 168.603C33.455 168.603 33.455 168.603 33.455 168.603C33.455 168.603 33.455 168.603 33.455 168.603C33.455 168.603 33.455 168.603 33.455 168.603C33.455 168.603 33.455 168.603 33.4549 168.603C33.4549 168.603 33.4549 168.603 33.4549 168.603C33.4549 168.603 33.4549 168.603 33.4549 168.603C33.4549 168.603 33.4549 168.603 33.4549 168.603C33.4549 168.603 33.4549 168.603 33.4549 168.603C33.4549 168.603 33.4549 168.603 33.4549 168.603C33.4549 168.603 33.4549 168.603 33.4548 168.602C33.4548 168.602 33.4548 168.602 33.4548 168.602C33.4548 168.602 33.4548 168.602 33.4548 168.602C33.4548 168.602 33.4548 168.602 33.4548 168.602C33.4548 168.602 33.4548 168.602 33.4548 168.602C33.4548 168.602 33.4548 168.602 33.4548 168.602C33.4548 168.602 33.4548 168.602 33.4547 168.602C33.4547 168.602 33.4547 168.602 33.4547 168.602C33.4547 168.602 33.4547 168.602 33.4547 168.602C33.4547 168.602 33.4547 168.602 33.4547 168.602C33.4547 168.602 33.4547 168.602 33.4547 168.602C33.4547 168.602 33.4547 168.602 33.4547 168.602C33.4547 168.602 33.4547 168.602 33.4547 168.602C33.4546 168.602 33.4546 168.602 33.4546 168.602C33.4546 168.602 33.4546 168.602 33.4546 168.602C33.4546 168.602 33.4546 168.602 33.4546 168.602C33.4546 168.602 33.4546 168.602 33.4546 168.602C33.4546 168.602 33.4546 168.602 33.4546 168.602C33.4546 168.602 33.4546 168.602 33.4546 168.602C33.4545 168.602 33.4545 168.602 33.4545 168.602C33.4545 168.602 33.4545 168.602 33.4545 168.602C33.4545 168.602 33.4545 168.602 33.4545 168.602C33.4545 168.602 33.4545 168.602 33.4545 168.602C33.4545 168.602 33.4545 168.602 33.4545 168.602C33.4545 168.602 33.4545 168.602 33.4545 168.602C33.4544 168.602 33.4544 168.602 33.4544 168.602C33.4544 168.602 33.4544 168.602 33.4544 168.602C33.4544 168.602 33.4544 168.602 33.4544 168.602C33.4544 168.602 33.4544 168.602 33.4544 168.602C33.4544 168.602 33.4544 168.602 33.4544 168.602C33.4544 168.602 33.4544 168.602 33.4544 168.602C33.4544 168.602 33.4543 168.602 33.4543 168.602C33.4543 168.602 33.4543 168.602 33.4543 168.602C33.4543 168.602 33.4543 168.602 33.4543 168.602C33.4543 168.602 33.4543 168.602 33.4543 168.602C33.4543 168.602 33.4543 168.602 33.4543 168.602C33.4543 168.602 33.4543 168.602 33.4543 168.602C33.4543 168.602 33.4542 168.602 33.4542 168.602C33.4542 168.602 33.4542 168.602 33.4542 168.602C33.4542 168.602 33.4542 168.602 33.4542 168.602C33.4542 168.602 33.4542 168.602 33.4542 168.602C33.4542 168.602 33.4542 168.602 33.4542 168.602C33.4542 168.602 33.4542 168.602 33.4542 168.602C33.4542 168.602 33.4541 168.602 33.4541 168.602C33.4541 168.602 33.4541 168.602 33.4541 168.602C33.4541 168.602 33.4541 168.602 33.4541 168.602C33.4541 168.602 33.4541 168.602 33.4541 168.602C33.4541 168.602 33.4541 168.602 33.4541 168.602C33.4541 168.602 33.4541 168.602 33.4541 168.602C33.4541 168.602 33.4541 168.602 33.454 168.602C33.454 168.602 33.454 168.602 33.454 168.602C33.454 168.602 33.454 168.602 33.454 168.602C33.454 168.602 33.454 168.602 33.454 168.602C33.454 168.602 33.454 168.602 33.454 168.602C33.454 168.602 33.454 168.602 33.454 168.602C33.454 168.602 33.454 168.602 33.4539 168.602C33.4539 168.602 33.4539 168.602 33.4539 168.602C33.4539 168.602 33.4539 168.602 33.4539 168.602C33.4539 168.602 33.4539 168.602 33.4539 168.602C33.4539 168.602 33.4539 168.602 33.4539 168.602C33.4539 168.602 33.4539 168.602 33.4539 168.602C33.4539 168.602 33.4539 168.602 33.4538 168.601C33.4538 168.601 33.4538 168.601 33.4538 168.601C33.4538 168.601 33.4538 168.601 33.4538 168.601C33.4538 168.601 33.4538 168.601 33.4538 168.601C33.4538 168.601 33.4538 168.601 33.4538 168.601C33.4538 168.601 33.4538 168.601 33.4538 168.601C33.4538 168.601 33.4538 168.601 33.4538 168.601C33.4537 168.601 33.4537 168.601 33.4537 168.601C33.4537 168.601 33.4537 168.601 33.4537 168.601C33.4537 168.601 33.4537 168.601 33.4537 168.601C33.4537 168.601 33.4537 168.601 33.4537 168.601C33.4537 168.601 33.4537 168.601 33.4537 168.601C33.4537 168.601 33.4537 168.601 33.4537 168.601C33.4536 168.601 33.4536 168.601 33.4536 168.601C33.4536 168.601 33.4536 168.601 33.4536 168.601C33.4536 168.601 33.4536 168.601 33.4536 168.601C33.4536 168.601 33.4536 168.601 33.4536 168.601C33.4536 168.601 33.4536 168.601 33.4536 168.601C33.4536 168.601 33.4536 168.601 33.4536 168.601C33.4535 168.601 33.4535 168.601 33.4535 168.601C33.4535 168.601 33.4535 168.601 33.4535 168.601C33.4535 168.601 33.4535 168.601 33.4535 168.601C33.4535 168.601 33.4535 168.601 33.4535 168.601C33.4535 168.601 33.4535 168.601 33.4535 168.601C33.4535 168.601 33.4535 168.601 33.4535 168.601C33.4535 168.601 33.4534 168.601 33.4534 168.601C33.4534 168.601 33.4534 168.601 33.4534 168.601C33.4534 168.601 33.4534 168.601 33.4534 168.601C33.4534 168.601 33.4534 168.601 33.4534 168.601C33.4534 168.601 33.4534 168.601 33.4534 168.601C33.4534 168.601 33.4534 168.601 33.4534 168.601C33.4534 168.601 33.4533 168.601 33.4533 168.601C33.4533 168.601 33.4533 168.601 33.4533 168.601C33.4533 168.601 33.4533 168.601 33.4533 168.601C33.4533 168.601 33.4533 168.601 33.4533 168.601C33.4533 168.601 33.4533 168.601 33.4533 168.601C33.4533 168.601 33.4533 168.601 33.4533 168.601C33.4533 168.601 33.4533 168.601 33.4532 168.601C33.4532 168.601 33.4532 168.601 33.4532 168.601C33.4532 168.601 33.4532 168.601 33.4532 168.601C33.4532 168.601 33.4532 168.601 33.4532 168.601C33.4532 168.601 33.4532 168.601 33.4532 168.601C33.4532 168.601 33.4532 168.601 33.4532 168.601C33.4532 168.601 33.4532 168.601 33.4531 168.601C33.4531 168.601 33.4531 168.601 33.4531 168.601C33.4531 168.601 33.4531 168.601 33.4531 168.601C33.4531 168.601 33.4531 168.601 33.4531 168.601C33.4531 168.601 33.4531 168.601 33.4531 168.601C33.4531 168.601 33.4531 168.601 33.4531 168.601C33.4531 168.601 33.4531 168.601 33.453 168.601C33.453 168.601 33.453 168.601 33.453 168.601C33.453 168.601 33.453 168.601 33.453 168.601C33.453 168.601 33.453 168.601 33.453 168.601C33.453 168.601 33.453 168.601 33.453 168.601C33.453 168.601 33.453 168.601 33.453 168.601C33.453 168.601 33.453 168.601 33.453 168.601C33.4529 168.601 33.4529 168.601 33.4529 168.601C33.4529 168.601 33.4529 168.601 33.4529 168.601C33.4529 168.601 33.4529 168.601 33.4529 168.601C33.4529 168.601 33.4529 168.601 33.4529 168.601C33.4529 168.601 33.4529 168.601 33.4529 168.601C33.4529 168.601 33.4529 168.601 33.4529 168.601C33.4528 168.6 33.4528 168.6 33.4528 168.6C33.4528 168.6 33.4528 168.6 33.4528 168.6C33.4528 168.6 33.4528 168.6 33.4528 168.6C33.4528 168.6 33.4528 168.6 33.4528 168.6C33.4528 168.6 33.4528 168.6 33.4528 168.6C33.4528 168.6 33.4528 168.6 33.4528 168.6C33.4527 168.6 33.4527 168.6 33.4527 168.6C33.4527 168.6 33.4527 168.6 33.4527 168.6C33.4527 168.6 33.4527 168.6 33.4527 168.6C33.4527 168.6 33.4527 168.6 33.4527 168.6C33.4527 168.6 33.4527 168.6 33.4527 168.6C33.4527 168.6 33.4527 168.6 33.4527 168.6C33.4527 168.6 33.4526 168.6 33.4526 168.6C33.4526 168.6 33.4526 168.6 33.4526 168.6C33.4526 168.6 33.4526 168.6 33.4526 168.6C33.4526 168.6 33.4526 168.6 33.4526 168.6C33.4526 168.6 33.4526 168.6 33.4526 168.6C33.4526 168.6 33.4526 168.6 33.4526 168.6C33.4526 168.6 33.4525 168.6 33.4525 168.6C33.4525 168.6 33.4525 168.6 33.4525 168.6C33.4525 168.6 33.4525 168.6 33.4525 168.6C33.4525 168.6 33.4525 168.6 33.4525 168.6C33.4525 168.6 33.4525 168.6 33.4525 168.6C33.4525 168.6 33.4525 168.6 33.4525 168.6C33.4525 168.6 33.4524 168.6 33.4524 168.6C33.4524 168.6 33.4524 168.6 33.4524 168.6C33.4524 168.6 33.4524 168.6 33.4524 168.6C33.4524 168.6 33.4524 168.6 33.4524 168.6C33.4524 168.6 33.4524 168.6 33.4524 168.6C33.4524 168.6 33.4524 168.6 33.4524 168.6C33.4524 168.6 33.4524 168.6 33.4523 168.6C33.4523 168.6 33.4523 168.6 33.4523 168.6C33.4523 168.6 33.4523 168.6 33.4523 168.6C33.4523 168.6 33.4523 168.6 33.4523 168.6C33.4523 168.6 33.4523 168.6 33.4523 168.6C33.4523 168.6 33.4523 168.6 33.4523 168.6C33.4523 168.6 33.4523 168.6 33.4522 168.6C33.4522 168.6 33.4522 168.6 33.4522 168.6C33.4522 168.6 33.4522 168.6 33.4522 168.6C33.4522 168.6 33.4522 168.6 33.4522 168.6C33.4522 168.6 33.4522 168.6 33.4522 168.6C33.4522 168.6 33.4522 168.6 33.4522 168.6C33.4522 168.6 33.4522 168.6 33.4521 168.6C33.4521 168.6 33.4521 168.6 33.4521 168.6C33.4521 168.6 33.4521 168.6 33.4521 168.6C33.4521 168.6 33.4521 168.6 33.4521 168.6C33.4521 168.6 33.4521 168.6 33.4521 168.6C33.4521 168.6 33.4521 168.6 33.4521 168.6C33.4521 168.6 33.4521 168.6 33.4521 168.6C33.452 168.6 33.452 168.6 33.452 168.6C33.452 168.6 33.452 168.6 33.452 168.6C33.452 168.6 33.452 168.6 33.452 168.6C33.452 168.6 33.452 168.6 33.452 168.6C33.452 168.6 33.452 168.6 33.452 168.6C33.452 168.6 33.452 168.6 33.452 168.6C33.4519 168.6 33.4519 168.6 33.4519 168.6C33.4519 168.6 33.4519 168.6 33.4519 168.6C33.4519 168.6 33.4519 168.6 33.4519 168.6C33.4519 168.6 33.4519 168.6 33.4519 168.6C33.4519 168.6 33.4519 168.6 33.4519 168.6C33.4519 168.6 33.4519 168.6 33.4519 168.6C33.4518 168.599 33.4518 168.599 33.4518 168.599C33.4518 168.599 33.4518 168.599 33.4518 168.599C33.4518 168.599 33.4518 168.599 33.4518 168.599C33.4518 168.599 33.4518 168.599 33.4518 168.599C33.4518 168.599 33.4518 168.599 33.4518 168.599C33.4518 168.599 33.4518 168.599 33.4518 168.599C33.4518 168.599 33.4517 168.599 33.4517 168.599C33.4517 168.599 33.4517 168.599 33.4517 168.599C33.4517 168.599 33.4517 168.599 33.4517 168.599C33.4517 168.599 33.4517 168.599 33.4517 168.599C33.4517 168.599 33.4517 168.599 33.4517 168.599C33.4517 168.599 33.4517 168.599 33.4517 168.599C33.4517 168.599 33.4516 168.599 33.4516 168.599C33.4516 168.599 33.4516 168.599 33.4516 168.599C33.4516 168.599 33.4516 168.599 33.4516 168.599C33.4516 168.599 33.4516 168.599 33.4516 168.599C33.4516 168.599 33.4516 168.599 33.4516 168.599C33.4516 168.599 33.4516 168.599 33.4516 168.599C33.4516 168.599 33.4516 168.599 33.4515 168.599C33.4515 168.599 33.4515 168.599 33.4515 168.599C33.4515 168.599 33.4515 168.599 33.4515 168.599C33.4515 168.599 33.4515 168.599 33.4515 168.599C33.4515 168.599 33.4515 168.599 33.4515 168.599C33.4515 168.599 33.4515 168.599 33.4515 168.599C33.4515 168.599 33.4515 168.599 33.4514 168.599C33.4514 168.599 33.4514 168.599 33.4514 168.599L32.8291 169.221C32.8291 169.221 32.8291 169.221 32.8291 169.221C32.8291 169.221 32.8291 169.221 32.8291 169.221C32.8291 169.221 32.8291 169.221 32.8291 169.222C32.8291 169.222 32.8291 169.222 32.8291 169.222C32.8291 169.222 32.8291 169.222 32.8291 169.222C32.8291 169.222 32.8291 169.222 32.8292 169.222C32.8292 169.222 32.8292 169.222 32.8292 169.222C32.8292 169.222 32.8292 169.222 32.8292 169.222C32.8292 169.222 32.8292 169.222 32.8292 169.222C32.8292 169.222 32.8292 169.222 32.8292 169.222C32.8292 169.222 32.8292 169.222 32.8292 169.222C32.8292 169.222 32.8292 169.222 32.8293 169.222C32.8293 169.222 32.8293 169.222 32.8293 169.222C32.8293 169.222 32.8293 169.222 32.8293 169.222C32.8293 169.222 32.8293 169.222 32.8293 169.222C32.8293 169.222 32.8293 169.222 32.8293 169.222C32.8293 169.222 32.8293 169.222 32.8293 169.222C32.8293 169.222 32.8293 169.222 32.8294 169.222C32.8294 169.222 32.8294 169.222 32.8294 169.222C32.8294 169.222 32.8294 169.222 32.8294 169.222C32.8294 169.222 32.8294 169.222 32.8294 169.222C32.8294 169.222 32.8294 169.222 32.8294 169.222C32.8294 169.222 32.8294 169.222 32.8294 169.222C32.8294 169.222 32.8294 169.222 32.8294 169.222C32.8295 169.222 32.8295 169.222 32.8295 169.222C32.8295 169.222 32.8295 169.222 32.8295 169.222C32.8295 169.222 32.8295 169.222 32.8295 169.222C32.8295 169.222 32.8295 169.222 32.8295 169.222C32.8295 169.222 32.8295 169.222 32.8295 169.222C32.8295 169.222 32.8295 169.222 32.8295 169.222C32.8296 169.222 32.8296 169.222 32.8296 169.222C32.8296 169.222 32.8296 169.222 32.8296 169.222C32.8296 169.222 32.8296 169.222 32.8296 169.222C32.8296 169.222 32.8296 169.222 32.8296 169.222C32.8296 169.222 32.8296 169.222 32.8296 169.222C32.8296 169.222 32.8296 169.222 32.8296 169.222C32.8297 169.222 32.8297 169.222 32.8297 169.222C32.8297 169.222 32.8297 169.222 32.8297 169.222C32.8297 169.222 32.8297 169.222 32.8297 169.222C32.8297 169.222 32.8297 169.222 32.8297 169.222C32.8297 169.222 32.8297 169.222 32.8297 169.222C32.8297 169.222 32.8297 169.222 32.8297 169.222C32.8297 169.222 32.8298 169.222 32.8298 169.222C32.8298 169.222 32.8298 169.222 32.8298 169.222C32.8298 169.222 32.8298 169.222 32.8298 169.222C32.8298 169.222 32.8298 169.222 32.8298 169.222C32.8298 169.222 32.8298 169.222 32.8298 169.222C32.8298 169.222 32.8298 169.222 32.8298 169.222C32.8298 169.222 32.8299 169.222 32.8299 169.222C32.8299 169.222 32.8299 169.222 32.8299 169.222C32.8299 169.222 32.8299 169.222 32.8299 169.222C32.8299 169.222 32.8299 169.222 32.8299 169.222C32.8299 169.222 32.8299 169.222 32.8299 169.222C32.8299 169.222 32.8299 169.222 32.8299 169.222C32.8299 169.222 32.8299 169.222 32.83 169.222C32.83 169.222 32.83 169.222 32.83 169.222C32.83 169.222 32.83 169.222 32.83 169.222C32.83 169.222 32.83 169.222 32.83 169.222C32.83 169.222 32.83 169.222 32.83 169.222C32.83 169.222 32.83 169.222 32.83 169.222C32.83 169.222 32.83 169.222 32.8301 169.222C32.8301 169.222 32.8301 169.222 32.8301 169.222C32.8301 169.222 32.8301 169.222 32.8301 169.222C32.8301 169.222 32.8301 169.222 32.8301 169.222C32.8301 169.223 32.8301 169.223 32.8301 169.223C32.8301 169.223 32.8301 169.223 32.8301 169.223C32.8301 169.223 32.8301 169.223 32.8302 169.223C32.8302 169.223 32.8302 169.223 32.8302 169.223C32.8302 169.223 32.8302 169.223 32.8302 169.223C32.8302 169.223 32.8302 169.223 32.8302 169.223C32.8302 169.223 32.8302 169.223 32.8302 169.223C32.8302 169.223 32.8302 169.223 32.8302 169.223C32.8302 169.223 32.8302 169.223 32.8302 169.223C32.8303 169.223 32.8303 169.223 32.8303 169.223C32.8303 169.223 32.8303 169.223 32.8303 169.223C32.8303 169.223 32.8303 169.223 32.8303 169.223C32.8303 169.223 32.8303 169.223 32.8303 169.223C32.8303 169.223 32.8303 169.223 32.8303 169.223C32.8303 169.223 32.8303 169.223 32.8303 169.223C32.8304 169.223 32.8304 169.223 32.8304 169.223C32.8304 169.223 32.8304 169.223 32.8304 169.223C32.8304 169.223 32.8304 169.223 32.8304 169.223C32.8304 169.223 32.8304 169.223 32.8304 169.223C32.8304 169.223 32.8304 169.223 32.8304 169.223C32.8304 169.223 32.8304 169.223 32.8304 169.223C32.8305 169.223 32.8305 169.223 32.8305 169.223C32.8305 169.223 32.8305 169.223 32.8305 169.223C32.8305 169.223 32.8305 169.223 32.8305 169.223C32.8305 169.223 32.8305 169.223 32.8305 169.223C32.8305 169.223 32.8305 169.223 32.8305 169.223C32.8305 169.223 32.8305 169.223 32.8305 169.223C32.8305 169.223 32.8306 169.223 32.8306 169.223C32.8306 169.223 32.8306 169.223 32.8306 169.223C32.8306 169.223 32.8306 169.223 32.8306 169.223C32.8306 169.223 32.8306 169.223 32.8306 169.223C32.8306 169.223 32.8306 169.223 32.8306 169.223C32.8306 169.223 32.8306 169.223 32.8306 169.223C32.8306 169.223 32.8307 169.223 32.8307 169.223C32.8307 169.223 32.8307 169.223 32.8307 169.223C32.8307 169.223 32.8307 169.223 32.8307 169.223C32.8307 169.223 32.8307 169.223 32.8307 169.223C32.8307 169.223 32.8307 169.223 32.8307 169.223C32.8307 169.223 32.8307 169.223 32.8307 169.223C32.8307 169.223 32.8308 169.223 32.8308 169.223C32.8308 169.223 32.8308 169.223 32.8308 169.223C32.8308 169.223 32.8308 169.223 32.8308 169.223C32.8308 169.223 32.8308 169.223 32.8308 169.223C32.8308 169.223 32.8308 169.223 32.8308 169.223C32.8308 169.223 32.8308 169.223 32.8308 169.223C32.8308 169.223 32.8308 169.223 32.8309 169.223C32.8309 169.223 32.8309 169.223 32.8309 169.223C32.8309 169.223 32.8309 169.223 32.8309 169.223C32.8309 169.223 32.8309 169.223 32.8309 169.223C32.8309 169.223 32.8309 169.223 32.8309 169.223C32.8309 169.223 32.8309 169.223 32.8309 169.223C32.8309 169.223 32.8309 169.223 32.831 169.223C32.831 169.223 32.831 169.223 32.831 169.223C32.831 169.223 32.831 169.223 32.831 169.223C32.831 169.223 32.831 169.223 32.831 169.223C32.831 169.223 32.831 169.223 32.831 169.223C32.831 169.223 32.831 169.223 32.831 169.223C32.831 169.223 32.831 169.223 32.8311 169.223C32.8311 169.223 32.8311 169.223 32.8311 169.223C32.8311 169.223 32.8311 169.223 32.8311 169.223C32.8311 169.223 32.8311 169.223 32.8311 169.223C32.8311 169.224 32.8311 169.224 32.8311 169.224C32.8311 169.224 32.8311 169.224 32.8311 169.224C32.8311 169.224 32.8311 169.224 32.8311 169.224C32.8312 169.224 32.8312 169.224 32.8312 169.224C32.8312 169.224 32.8312 169.224 32.8312 169.224C32.8312 169.224 32.8312 169.224 32.8312 169.224C32.8312 169.224 32.8312 169.224 32.8312 169.224C32.8312 169.224 32.8312 169.224 32.8312 169.224C32.8312 169.224 32.8312 169.224 32.8312 169.224C32.8313 169.224 32.8313 169.224 32.8313 169.224C32.8313 169.224 32.8313 169.224 32.8313 169.224C32.8313 169.224 32.8313 169.224 32.8313 169.224C32.8313 169.224 32.8313 169.224 32.8313 169.224C32.8313 169.224 32.8313 169.224 32.8313 169.224C32.8313 169.224 32.8313 169.224 32.8313 169.224C32.8314 169.224 32.8314 169.224 32.8314 169.224C32.8314 169.224 32.8314 169.224 32.8314 169.224C32.8314 169.224 32.8314 169.224 32.8314 169.224C32.8314 169.224 32.8314 169.224 32.8314 169.224C32.8314 169.224 32.8314 169.224 32.8314 169.224C32.8314 169.224 32.8314 169.224 32.8314 169.224C32.8314 169.224 32.8315 169.224 32.8315 169.224C32.8315 169.224 32.8315 169.224 32.8315 169.224C32.8315 169.224 32.8315 169.224 32.8315 169.224C32.8315 169.224 32.8315 169.224 32.8315 169.224C32.8315 169.224 32.8315 169.224 32.8315 169.224C32.8315 169.224 32.8315 169.224 32.8315 169.224C32.8315 169.224 32.8316 169.224 32.8316 169.224C32.8316 169.224 32.8316 169.224 32.8316 169.224C32.8316 169.224 32.8316 169.224 32.8316 169.224C32.8316 169.224 32.8316 169.224 32.8316 169.224C32.8316 169.224 32.8316 169.224 32.8316 169.224C32.8316 169.224 32.8316 169.224 32.8316 169.224C32.8316 169.224 32.8316 169.224 32.8317 169.224C32.8317 169.224 32.8317 169.224 32.8317 169.224C32.8317 169.224 32.8317 169.224 32.8317 169.224C32.8317 169.224 32.8317 169.224 32.8317 169.224C32.8317 169.224 32.8317 169.224 32.8317 169.224C32.8317 169.224 32.8317 169.224 32.8317 169.224C32.8317 169.224 32.8317 169.224 32.8318 169.224C32.8318 169.224 32.8318 169.224 32.8318 169.224C32.8318 169.224 32.8318 169.224 32.8318 169.224C32.8318 169.224 32.8318 169.224 32.8318 169.224C32.8318 169.224 32.8318 169.224 32.8318 169.224C32.8318 169.224 32.8318 169.224 32.8318 169.224C32.8318 169.224 32.8318 169.224 32.8319 169.224C32.8319 169.224 32.8319 169.224 32.8319 169.224C32.8319 169.224 32.8319 169.224 32.8319 169.224C32.8319 169.224 32.8319 169.224 32.8319 169.224C32.8319 169.224 32.8319 169.224 32.8319 169.224C32.8319 169.224 32.8319 169.224 32.8319 169.224C32.8319 169.224 32.8319 169.224 32.8319 169.224C32.832 169.224 32.832 169.224 32.832 169.224C32.832 169.224 32.832 169.224 32.832 169.224C32.832 169.224 32.832 169.224 32.832 169.224C32.832 169.224 32.832 169.224 32.832 169.224C32.832 169.224 32.832 169.224 32.832 169.224C32.832 169.224 32.832 169.224 32.832 169.224C32.8321 169.224 32.8321 169.224 32.8321 169.224C32.8321 169.224 32.8321 169.224 32.8321 169.224C32.8321 169.224 32.8321 169.224 32.8321 169.224C32.8321 169.224 32.8321 169.225 32.8321 169.225C32.8321 169.225 32.8321 169.225 32.8321 169.225C32.8321 169.225 32.8321 169.225 32.8321 169.225C32.8322 169.225 32.8322 169.225 32.8322 169.225C32.8322 169.225 32.8322 169.225 32.8322 169.225C32.8322 169.225 32.8322 169.225 32.8322 169.225C32.8322 169.225 32.8322 169.225 32.8322 169.225C32.8322 169.225 32.8322 169.225 32.8322 169.225C32.8322 169.225 32.8322 169.225 32.8322 169.225C32.8322 169.225 32.8323 169.225 32.8323 169.225C32.8323 169.225 32.8323 169.225 32.8323 169.225C32.8323 169.225 32.8323 169.225 32.8323 169.225C32.8323 169.225 32.8323 169.225 32.8323 169.225C32.8323 169.225 32.8323 169.225 32.8323 169.225C32.8323 169.225 32.8323 169.225 32.8323 169.225C32.8323 169.225 32.8324 169.225 32.8324 169.225C32.8324 169.225 32.8324 169.225 32.8324 169.225C32.8324 169.225 32.8324 169.225 32.8324 169.225C32.8324 169.225 32.8324 169.225 32.8324 169.225C32.8324 169.225 32.8324 169.225 32.8324 169.225C32.8324 169.225 32.8324 169.225 32.8324 169.225C32.8324 169.225 32.8325 169.225 32.8325 169.225C32.8325 169.225 32.8325 169.225 32.8325 169.225C32.8325 169.225 32.8325 169.225 32.8325 169.225C32.8325 169.225 32.8325 169.225 32.8325 169.225C32.8325 169.225 32.8325 169.225 32.8325 169.225C32.8325 169.225 32.8325 169.225 32.8325 169.225C32.8325 169.225 32.8325 169.225 32.8326 169.225C32.8326 169.225 32.8326 169.225 32.8326 169.225C32.8326 169.225 32.8326 169.225 32.8326 169.225C32.8326 169.225 32.8326 169.225 32.8326 169.225C32.8326 169.225 32.8326 169.225 32.8326 169.225C32.8326 169.225 32.8326 169.225 32.8326 169.225C32.8326 169.225 32.8326 169.225 32.8327 169.225C32.8327 169.225 32.8327 169.225 32.8327 169.225C32.8327 169.225 32.8327 169.225 32.8327 169.225C32.8327 169.225 32.8327 169.225 32.8327 169.225C32.8327 169.225 32.8327 169.225 32.8327 169.225C32.8327 169.225 32.8327 169.225 32.8327 169.225C32.8327 169.225 32.8327 169.225 32.8328 169.225C32.8328 169.225 32.8328 169.225 32.8328 169.225C32.8328 169.225 32.8328 169.225 32.8328 169.225C32.8328 169.225 32.8328 169.225 32.8328 169.225C32.8328 169.225 32.8328 169.225 32.8328 169.225C32.8328 169.225 32.8328 169.225 32.8328 169.225C32.8328 169.225 32.8328 169.225 32.8328 169.225C32.8329 169.225 32.8329 169.225 32.8329 169.225C32.8329 169.225 32.8329 169.225 32.8329 169.225C32.8329 169.225 32.8329 169.225 32.8329 169.225C32.8329 169.225 32.8329 169.225 32.8329 169.225C32.8329 169.225 32.8329 169.225 32.8329 169.225C32.8329 169.225 32.8329 169.225 32.8329 169.225C32.833 169.225 32.833 169.225 32.833 169.225C32.833 169.225 32.833 169.225 32.833 169.225C32.833 169.225 32.833 169.225 32.833 169.225C32.833 169.225 32.833 169.225 32.833 169.225C32.833 169.225 32.833 169.225 32.833 169.225C32.833 169.225 32.833 169.225 32.833 169.225C32.8331 169.225 32.8331 169.225 32.8331 169.225C32.8331 169.225 32.8331 169.225 32.8331 169.225C32.8331 169.225 32.8331 169.225 32.8331 169.225C32.8331 169.225 32.8331 169.226 32.8331 169.226C32.8331 169.226 32.8331 169.226 32.8331 169.226C32.8331 169.226 32.8331 169.226 32.8331 169.226C32.8331 169.226 32.8332 169.226 32.8332 169.226C32.8332 169.226 32.8332 169.226 32.8332 169.226C32.8332 169.226 32.8332 169.226 32.8332 169.226C32.8332 169.226 32.8332 169.226 32.8332 169.226C32.8332 169.226 32.8332 169.226 32.8332 169.226C32.8332 169.226 32.8332 169.226 32.8332 169.226C32.8332 169.226 32.8333 169.226 32.8333 169.226C32.8333 169.226 32.8333 169.226 32.8333 169.226C32.8333 169.226 32.8333 169.226 32.8333 169.226C32.8333 169.226 32.8333 169.226 32.8333 169.226C32.8333 169.226 32.8333 169.226 32.8333 169.226C32.8333 169.226 32.8333 169.226 32.8333 169.226C32.8333 169.226 32.8334 169.226 32.8334 169.226C32.8334 169.226 32.8334 169.226 32.8334 169.226C32.8334 169.226 32.8334 169.226 32.8334 169.226C32.8334 169.226 32.8334 169.226 32.8334 169.226C32.8334 169.226 32.8334 169.226 32.8334 169.226C32.8334 169.226 32.8334 169.226 32.8334 169.226C32.8334 169.226 32.8334 169.226 32.8335 169.226C32.8335 169.226 32.8335 169.226 32.8335 169.226C32.8335 169.226 32.8335 169.226 32.8335 169.226C32.8335 169.226 32.8335 169.226 32.8335 169.226C32.8335 169.226 32.8335 169.226 32.8335 169.226C32.8335 169.226 32.8335 169.226 32.8335 169.226C32.8335 169.226 32.8335 169.226 32.8336 169.226C32.8336 169.226 32.8336 169.226 32.8336 169.226C32.8336 169.226 32.8336 169.226 32.8336 169.226C32.8336 169.226 32.8336 169.226 32.8336 169.226C32.8336 169.226 32.8336 169.226 32.8336 169.226C32.8336 169.226 32.8336 169.226 32.8336 169.226C32.8336 169.226 32.8336 169.226 32.8336 169.226C32.8337 169.226 32.8337 169.226 32.8337 169.226C32.8337 169.226 32.8337 169.226 32.8337 169.226C32.8337 169.226 32.8337 169.226 32.8337 169.226C32.8337 169.226 32.8337 169.226 32.8337 169.226C32.8337 169.226 32.8337 169.226 32.8337 169.226C32.8337 169.226 32.8337 169.226 32.8337 169.226C32.8338 169.226 32.8338 169.226 32.8338 169.226C32.8338 169.226 32.8338 169.226 32.8338 169.226C32.8338 169.226 32.8338 169.226 32.8338 169.226C32.8338 169.226 32.8338 169.226 32.8338 169.226C32.8338 169.226 32.8338 169.226 32.8338 169.226C32.8338 169.226 32.8338 169.226 32.8338 169.226C32.8339 169.226 32.8339 169.226 32.8339 169.226C32.8339 169.226 32.8339 169.226 32.8339 169.226C32.8339 169.226 32.8339 169.226 32.8339 169.226C32.8339 169.226 32.8339 169.226 32.8339 169.226C32.8339 169.226 32.8339 169.226 32.8339 169.226C32.8339 169.226 32.8339 169.226 32.8339 169.226C32.8339 169.226 32.834 169.226 32.834 169.226C32.834 169.226 32.834 169.226 32.834 169.226C32.834 169.226 32.834 169.226 32.834 169.226C32.834 169.226 32.834 169.226 32.834 169.226C32.834 169.226 32.834 169.226 32.834 169.226C32.834 169.226 32.834 169.226 32.834 169.226C32.834 169.226 32.8341 169.226 32.8341 169.226C32.8341 169.226 32.8341 169.226 32.8341 169.226C32.8341 169.226 32.8341 169.226 32.8341 169.226C32.8341 169.226 32.8341 169.226 32.8341 169.227C32.8341 169.227 32.8341 169.227 32.8341 169.227C32.8341 169.227 32.8341 169.227 32.8341 169.227C32.8341 169.227 32.8342 169.227 32.8342 169.227C32.8342 169.227 32.8342 169.227 32.8342 169.227C32.8342 169.227 32.8342 169.227 32.8342 169.227C32.8342 169.227 32.8342 169.227 32.8342 169.227C32.8342 169.227 32.8342 169.227 32.8342 169.227C32.8342 169.227 32.8342 169.227 32.8342 169.227C32.8342 169.227 32.8342 169.227 32.8343 169.227C32.8343 169.227 32.8343 169.227 32.8343 169.227C32.8343 169.227 32.8343 169.227 32.8343 169.227C32.8343 169.227 32.8343 169.227 32.8343 169.227C32.8343 169.227 32.8343 169.227 32.8343 169.227C32.8343 169.227 32.8343 169.227 32.8343 169.227C32.8343 169.227 32.8343 169.227 32.8344 169.227C32.8344 169.227 32.8344 169.227 32.8344 169.227C32.8344 169.227 32.8344 169.227 32.8344 169.227C32.8344 169.227 32.8344 169.227 32.8344 169.227C32.8344 169.227 32.8344 169.227 32.8344 169.227C32.8344 169.227 32.8344 169.227 32.8344 169.227C32.8344 169.227 32.8344 169.227 32.8345 169.227C32.8345 169.227 32.8345 169.227 32.8345 169.227C32.8345 169.227 32.8345 169.227 32.8345 169.227C32.8345 169.227 32.8345 169.227 32.8345 169.227C32.8345 169.227 32.8345 169.227 32.8345 169.227C32.8345 169.227 32.8345 169.227 32.8345 169.227C32.8345 169.227 32.8345 169.227 32.8345 169.227C32.8346 169.227 32.8346 169.227 32.8346 169.227C32.8346 169.227 32.8346 169.227 32.8346 169.227C32.8346 169.227 32.8346 169.227 32.8346 169.227C32.8346 169.227 32.8346 169.227 32.8346 169.227C32.8346 169.227 32.8346 169.227 32.8346 169.227C32.8346 169.227 32.8346 169.227 32.8346 169.227C32.8347 169.227 32.8347 169.227 32.8347 169.227C32.8347 169.227 32.8347 169.227 32.8347 169.227C32.8347 169.227 32.8347 169.227 32.8347 169.227C32.8347 169.227 32.8347 169.227 32.8347 169.227C32.8347 169.227 32.8347 169.227 32.8347 169.227C32.8347 169.227 32.8347 169.227 32.8347 169.227C32.8348 169.227 32.8348 169.227 32.8348 169.227C32.8348 169.227 32.8348 169.227 32.8348 169.227C32.8348 169.227 32.8348 169.227 32.8348 169.227C32.8348 169.227 32.8348 169.227 32.8348 169.227C32.8348 169.227 32.8348 169.227 32.8348 169.227C32.8348 169.227 32.8348 169.227 32.8348 169.227C32.8348 169.227 32.8349 169.227 32.8349 169.227C32.8349 169.227 32.8349 169.227 32.8349 169.227C32.8349 169.227 32.8349 169.227 32.8349 169.227C32.8349 169.227 32.8349 169.227 32.8349 169.227C32.8349 169.227 32.8349 169.227 32.8349 169.227C32.8349 169.227 32.8349 169.227 32.8349 169.227C32.8349 169.227 32.835 169.227 32.835 169.227C32.835 169.227 32.835 169.227 32.835 169.227C32.835 169.227 32.835 169.227 32.835 169.227C32.835 169.227 32.835 169.227 32.835 169.227C32.835 169.227 32.835 169.227 32.835 169.227C32.835 169.227 32.835 169.227 32.835 169.227C32.835 169.227 32.8351 169.227 32.8351 169.227C32.8351 169.227 32.8351 169.227 32.8351 169.227C32.8351 169.227 32.8351 169.227 32.8351 169.227C32.8351 169.227 32.8351 169.227 32.8351 169.228C32.8351 169.228 32.8351 169.228 32.8351 169.228C32.8351 169.228 32.8351 169.228 32.8351 169.228C32.8351 169.228 32.8351 169.228 32.8352 169.228C32.8352 169.228 32.8352 169.228 32.8352 169.228C32.8352 169.228 32.8352 169.228 32.8352 169.228C32.8352 169.228 32.8352 169.228 32.8352 169.228C32.8352 169.228 32.8352 169.228 32.8352 169.228C32.8352 169.228 32.8352 169.228 32.8352 169.228C32.8352 169.228 32.8352 169.228 32.8353 169.228C32.8353 169.228 32.8353 169.228 32.8353 169.228C32.8353 169.228 32.8353 169.228 32.8353 169.228C32.8353 169.228 32.8353 169.228 32.8353 169.228C32.8353 169.228 32.8353 169.228 32.8353 169.228C32.8353 169.228 32.8353 169.228 32.8353 169.228C32.8353 169.228 32.8353 169.228 32.8354 169.228C32.8354 169.228 32.8354 169.228 32.8354 169.228C32.8354 169.228 32.8354 169.228 32.8354 169.228C32.8354 169.228 32.8354 169.228 32.8354 169.228C32.8354 169.228 32.8354 169.228 32.8354 169.228C32.8354 169.228 32.8354 169.228 32.8354 169.228C32.8354 169.228 32.8354 169.228 32.8354 169.228C32.8355 169.228 32.8355 169.228 32.8355 169.228C32.8355 169.228 32.8355 169.228 32.8355 169.228C32.8355 169.228 32.8355 169.228 32.8355 169.228C32.8355 169.228 32.8355 169.228 32.8355 169.228C32.8355 169.228 32.8355 169.228 32.8355 169.228C32.8355 169.228 32.8355 169.228 32.8355 169.228C32.8356 169.228 32.8356 169.228 32.8356 169.228C32.8356 169.228 32.8356 169.228 32.8356 169.228C32.8356 169.228 32.8356 169.228 32.8356 169.228C32.8356 169.228 32.8356 169.228 32.8356 169.228C32.8356 169.228 32.8356 169.228 32.8356 169.228C32.8356 169.228 32.8356 169.228 32.8356 169.228C32.8356 169.228 32.8357 169.228 32.8357 169.228C32.8357 169.228 32.8357 169.228 32.8357 169.228C32.8357 169.228 32.8357 169.228 32.8357 169.228C32.8357 169.228 32.8357 169.228 32.8357 169.228C32.8357 169.228 32.8357 169.228 32.8357 169.228C32.8357 169.228 32.8357 169.228 32.8357 169.228C32.8357 169.228 32.8358 169.228 32.8358 169.228C32.8358 169.228 32.8358 169.228 32.8358 169.228C32.8358 169.228 32.8358 169.228 32.8358 169.228C32.8358 169.228 32.8358 169.228 32.8358 169.228C32.8358 169.228 32.8358 169.228 32.8358 169.228C32.8358 169.228 32.8358 169.228 32.8358 169.228C32.8358 169.228 32.8359 169.228 32.8359 169.228C32.8359 169.228 32.8359 169.228 32.8359 169.228C32.8359 169.228 32.8359 169.228 32.8359 169.228C32.8359 169.228 32.8359 169.228 32.8359 169.228C32.8359 169.228 32.8359 169.228 32.8359 169.228C32.8359 169.228 32.8359 169.228 32.8359 169.228C32.8359 169.228 32.8359 169.228 32.836 169.228C32.836 169.228 32.836 169.228 32.836 169.228C32.836 169.228 32.836 169.228 32.836 169.228C32.836 169.228 32.836 169.228 32.836 169.228C32.836 169.228 32.836 169.228 32.836 169.228C32.836 169.228 32.836 169.228 32.836 169.228C32.836 169.228 32.836 169.228 32.8361 169.228C32.8361 169.228 32.8361 169.228 32.8361 169.228C32.8361 169.228 32.8361 169.228 32.8361 169.228C32.8361 169.228 32.8361 169.228 32.8361 169.228C32.8361 169.229 32.8361 169.229 32.8361 169.229C32.8361 169.229 32.8361 169.229 32.8361 169.229C32.8361 169.229 32.8361 169.229 32.8362 169.229C32.8362 169.229 32.8362 169.229 32.8362 169.229C32.8362 169.229 32.8362 169.229 32.8362 169.229C32.8362 169.229 32.8362 169.229 32.8362 169.229C32.8362 169.229 32.8362 169.229 32.8362 169.229C32.8362 169.229 32.8362 169.229 32.8362 169.229C32.8362 169.229 32.8362 169.229 32.8362 169.229C32.8363 169.229 32.8363 169.229 32.8363 169.229C32.8363 169.229 32.8363 169.229 32.8363 169.229C32.8363 169.229 32.8363 169.229 32.8363 169.229C32.8363 169.229 32.8363 169.229 32.8363 169.229C32.8363 169.229 32.8363 169.229 32.8363 169.229C32.8363 169.229 32.8363 169.229 32.8363 169.229C32.8364 169.229 32.8364 169.229 32.8364 169.229C32.8364 169.229 32.8364 169.229 32.8364 169.229C32.8364 169.229 32.8364 169.229 32.8364 169.229C32.8364 169.229 32.8364 169.229 32.8364 169.229C32.8364 169.229 32.8364 169.229 32.8364 169.229C32.8364 169.229 32.8364 169.229 32.8364 169.229C32.8365 169.229 32.8365 169.229 32.8365 169.229C32.8365 169.229 32.8365 169.229 32.8365 169.229C32.8365 169.229 32.8365 169.229 32.8365 169.229C32.8365 169.229 32.8365 169.229 32.8365 169.229C32.8365 169.229 32.8365 169.229 32.8365 169.229C32.8365 169.229 32.8365 169.229 32.8365 169.229C32.8365 169.229 32.8366 169.229 32.8366 169.229C32.8366 169.229 32.8366 169.229 32.8366 169.229C32.8366 169.229 32.8366 169.229 32.8366 169.229C32.8366 169.229 32.8366 169.229 32.8366 169.229C32.8366 169.229 32.8366 169.229 32.8366 169.229C32.8366 169.229 32.8366 169.229 32.8366 169.229C32.8366 169.229 32.8367 169.229 32.8367 169.229C32.8367 169.229 32.8367 169.229 32.8367 169.229C32.8367 169.229 32.8367 169.229 32.8367 169.229C32.8367 169.229 32.8367 169.229 32.8367 169.229C32.8367 169.229 32.8367 169.229 32.8367 169.229C32.8367 169.229 32.8367 169.229 32.8367 169.229C32.8367 169.229 32.8368 169.229 32.8368 169.229C32.8368 169.229 32.8368 169.229 32.8368 169.229C32.8368 169.229 32.8368 169.229 32.8368 169.229C32.8368 169.229 32.8368 169.229 32.8368 169.229C32.8368 169.229 32.8368 169.229 32.8368 169.229C32.8368 169.229 32.8368 169.229 32.8368 169.229C32.8368 169.229 32.8368 169.229 32.8369 169.229C32.8369 169.229 32.8369 169.229 32.8369 169.229C32.8369 169.229 32.8369 169.229 32.8369 169.229C32.8369 169.229 32.8369 169.229 32.8369 169.229C32.8369 169.229 32.8369 169.229 32.8369 169.229C32.8369 169.229 32.8369 169.229 32.8369 169.229C32.8369 169.229 32.8369 169.229 32.837 169.229C32.837 169.229 32.837 169.229 32.837 169.229C32.837 169.229 32.837 169.229 32.837 169.229C32.837 169.229 32.837 169.229 32.837 169.229C32.837 169.229 32.837 169.229 32.837 169.229C32.837 169.229 32.837 169.229 32.837 169.229C32.837 169.229 32.837 169.229 32.8371 169.229C32.8371 169.229 32.8371 169.229 32.8371 169.229C32.8371 169.229 32.8371 169.229 32.8371 169.229C32.8371 169.229 32.8371 169.229 32.8371 169.229C32.8371 169.23 32.8371 169.23 32.8371 169.23C32.8371 169.23 32.8371 169.23 32.8371 169.23C32.8371 169.23 32.8371 169.23 32.8371 169.23C32.8372 169.23 32.8372 169.23 32.8372 169.23C32.8372 169.23 32.8372 169.23 32.8372 169.23C32.8372 169.23 32.8372 169.23 32.8372 169.23C32.8372 169.23 32.8372 169.23 32.8372 169.23C32.8372 169.23 32.8372 169.23 32.8372 169.23C32.8372 169.23 32.8372 169.23 32.8372 169.23C32.8373 169.23 32.8373 169.23 32.8373 169.23C32.8373 169.23 32.8373 169.23 32.8373 169.23C32.8373 169.23 32.8373 169.23 32.8373 169.23C32.8373 169.23 32.8373 169.23 32.8373 169.23C32.8373 169.23 32.8373 169.23 32.8373 169.23C32.8373 169.23 32.8373 169.23 32.8373 169.23C32.8373 169.23 32.8374 169.23 32.8374 169.23C32.8374 169.23 32.8374 169.23 32.8374 169.23C32.8374 169.23 32.8374 169.23 32.8374 169.23C32.8374 169.23 32.8374 169.23 32.8374 169.23C32.8374 169.23 32.8374 169.23 32.8374 169.23L33.4598 168.607ZM33.1402 168.91L32.5179 169.533C32.8616 169.876 33.4188 169.876 33.7626 169.533C34.1063 169.189 34.1064 168.632 33.7627 168.288L33.1402 168.91ZM24.895 148.998H25.7751C25.7751 148.765 25.6824 148.541 25.5173 148.376L24.895 148.998ZM0 124.104L0.622374 123.481C0.370647 123.229 -0.00792949 123.154 -0.336826 123.29C-0.665723 123.427 -0.88017 123.748 -0.88017 124.104H0ZM8.25365 144.024L8.87602 143.401L8.87589 143.401L8.25365 144.024ZM33.7627 168.288C28.8265 163.35 25.7751 156.531 25.7751 148.998H24.0148C24.0148 157.017 27.265 164.278 32.5177 169.533L33.7627 168.288ZM25.5173 148.376L0.622374 123.481L-0.622374 124.726L24.2726 149.621L25.5173 148.376ZM-0.88017 124.104C-0.88017 132.126 2.37361 139.391 7.63141 144.646L8.87589 143.401C3.93488 138.462 0.88017 131.64 0.88017 124.104H-0.88017ZM7.63128 144.646L32.5179 169.533L33.7626 168.288L8.87602 143.401L7.63128 144.646Z" fill="white" mask="url(#path-13-inside-1)"/>
<path d="M0.440085 29.2275L24.4549 53.2423V147.936L0.440085 123.921V29.2275Z" fill="white" stroke="white" stroke-width="0.88017" stroke-linejoin="round"/>
<path d="M27.9837 0.440668L52.0166 24.4736C37.0481 25.0104 25.0104 37.0481 24.4736 52.0166L0.440668 27.9837C0.538018 12.8156 12.8156 0.538018 27.9837 0.440668Z" fill="white" stroke="white" stroke-width="0.88017" stroke-linejoin="round"/>
<rect x="24.895" y="24.8945" width="337.105" height="152.269" rx="28.1654" fill="white"/>
<rect x="31.9364" y="31.9359" width="323.022" height="138.187" rx="21.1241" fill="#212121"/>
<path d="M115.336 80.1996V107.463C115.336 112.397 111.878 115.961 106.565 115.961C101.272 115.961 97.793 112.397 97.793 107.463V80.1996H88.663V108.243C88.663 117.69 95.7899 123.994 106.565 123.994C117.297 123.994 124.466 117.69 124.466 108.243V80.1996H115.336ZM144.077 80.1996H134.947V123.383H144.077V80.1996ZM169.624 87.7271H182.845V123.383H191.869V87.7271H205.09V80.1996H169.624V87.7271ZM213.731 123.383H222.713V90.9954H213.731V123.383ZM218.243 86.8204C220.921 86.8204 223.114 84.7751 223.114 82.2659C223.114 79.7778 220.921 77.7325 218.243 77.7325C215.587 77.7325 213.394 79.7778 213.394 82.2659C213.394 84.7751 215.587 86.8204 218.243 86.8204ZM232.878 135.528H241.86V118.196H242.134C243.378 120.895 246.098 123.91 251.328 123.91C258.708 123.91 264.464 118.069 264.464 107.231C264.464 96.0981 258.455 90.5737 251.349 90.5737C245.93 90.5737 243.336 93.7998 242.134 96.4354H241.734V90.9954H232.878V135.528ZM241.67 107.189C241.67 101.412 244.116 97.7217 248.481 97.7217C252.93 97.7217 255.292 101.58 255.292 107.189C255.292 112.84 252.888 116.762 248.481 116.762C244.159 116.762 241.67 112.967 241.67 107.189ZM300.368 100.231C299.567 94.2636 294.76 90.5737 286.579 90.5737C278.292 90.5737 272.831 94.4112 272.852 100.653C272.831 105.502 275.888 108.644 282.214 109.909L287.823 111.027C290.648 111.596 291.934 112.629 291.976 114.253C291.934 116.172 289.847 117.542 286.705 117.542C283.5 117.542 281.37 116.172 280.822 113.536L271.987 114C272.831 120.199 278.102 124.015 286.684 124.015C295.076 124.015 301.085 119.735 301.106 113.346C301.085 108.665 298.028 105.861 291.744 104.574L285.883 103.394C282.867 102.74 281.75 101.707 281.771 100.147C281.75 98.2066 283.943 96.9415 286.726 96.9415C289.847 96.9415 291.702 98.6494 292.145 100.737L300.368 100.231Z" fill="white"/>
<rect x="31.9364" y="31.9359" width="323.022" height="138.187" rx="21.1241" stroke="white" stroke-width="14.0827"/>
</svg>
